0
SECTION
2
HEADER
9
$INSUNITS
70
4
9
$ACADVER
1
AC1014
9
$HANDSEED
5
FFFF
0
ENDSEC
0
SECTION
2
TABLES
0
TABLE
2
VPORT
5
8
100
AcDbSymbolTable
0
ENDTAB
0
TABLE
2
LTYPE
5
5
100
AcDbSymbolTable
0
LTYPE
5
14
100
AcDbSymbolTableRecord
100
AcDbLinetypeTableRecord
2
BYBLOCK
70
0
0
LTYPE
5
15
100
AcDbSymbolTableRecord
100
AcDbLinetypeTableRecord
2
BYLAYER
70
0
0
ENDTAB
0
TABLE
2
LAYER
5
2
100
AcDbSymbolTable
70
2
0
LAYER
5
50
100
AcDbSymbolTableRecord
100
AcDbLayerTableRecord
2
0
70
0
6
CONTINUOUS
0
ENDTAB
0
TABLE
2
STYLE
5
3
100
AcDbSymbolTable
70
1
0
STYLE
5
11
100
AcDbSymbolTableRecord
100
AcDbTextStyleTableRecord
2
STANDARD
70
0
0
ENDTAB
0
TABLE
2
VIEW
5
6
100
AcDbSymbolTable
70
0
0
ENDTAB
0
TABLE
2
UCS
5
7
100
AcDbSymbolTable
70
0
0
ENDTAB
0
TABLE
2
APPID
5
9
100
AcDbSymbolTable
70
2
0
APPID
5
12
100
AcDbSymbolTableRecord
100
AcDbRegAppTableRecord
2
ACAD
70
0
0
ENDTAB
0
TABLE
2
DIMSTYLE
5
A
100
AcDbSymbolTable
70
1
0
ENDTAB
0
TABLE
2
BLOCK_RECORD
5
1
100
AcDbSymbolTable
70
1
0
BLOCK_RECORD
5
1F
100
AcDbSymbolTableRecord
100
AcDbBlockTableRecord
2
*MODEL_SPACE
0
BLOCK_RECORD
5
1B
100
AcDbSymbolTableRecord
100
AcDbBlockTableRecord
2
*PAPER_SPACE
0
ENDTAB
0
ENDSEC
0
SECTION
2
BLOCKS
0
BLOCK
5
20
100
AcDbEntity
100
AcDbBlockBegin
2
*MODEL_SPACE
0
ENDBLK
5
21
100
AcDbEntity
100
AcDbBlockEnd
0
BLOCK
5
1C
100
AcDbEntity
100
AcDbBlockBegin
2
*PAPER_SPACE
0
ENDBLK
5
1D
100
AcDbEntity
100
AcDbBlockEnd
0
ENDSEC
0
SECTION
2
ENTITIES
0
CIRCLE
5
100
100
AcDbEntity
8
0
100
AcDbCircle
10
-164.99999999999997
20
-101.81444206231022
30
0
40
2.6999999999999957
210
0
220
0
230
1
0
LWPOLYLINE
5
101
100
AcDbEntity
8
0
100
AcDbPolyline
90
37
70
1
43
0.0
10
-140.00000198185444
20
-55.000000819563866
10
-178.00000000000051
20
-55.000000819563894
42
-0.4142135623730937
10
-180.00000000000054
20
-53.000000819563873
10
-180.00000000000051
20
-27.999961853021205
42
-0.41421356237309509
10
-178.00000000000054
20
-25.99996185302124
10
-150.99999999999244
20
-25.99996185302124
42
0.41421356237309637
10
-148.99999999999244
20
-23.999961853021226
10
-148.99999999999241
20
67.000001028180122
42
-0.41421356237309243
10
-146.99999999999244
20
69.000001028180122
10
-145.00000213086605
20
69.000001028180137
42
0.41421356237309509
10
-143.00000213086605
20
71.000001028180137
10
-143.00000213086605
20
77.000038146978682
42
0.41421356237309509
10
-145.00000213086605
20
79.000038146978696
10
-178.00000000000063
20
79.000038146978696
42
-0.41421356237308204
10
-180.00000000000057
20
81.00003814697871
10
-180.00000000000068
20
309.00003814697368
10
-67.772986789512558
20
309.00003814697368
42
-0.34199871419401556
10
-65.836495114485118
20
307.50003813952316
42
0.34199871419401312
10
-63.900003439457684
20
306.00003813207258
10
-11.999999231567475
20
306.00003813207258
42
-0.41421356237309925
10
-9.9999992315674788
20
304.00003813207258
10
-9.9999992315674824
20
-77.999573025656943
42
-0.41421356237309537
10
-11.999999231567477
20
-79.999573025656929
10
-17.000001133411867
20
-79.999573025656929
42
0.41421356237309309
10
-22.000001133411867
20
-84.999573025656929
10
-22.000001133411871
20
-163.99996183812959
42
-0.41421356237309637
10
-24.000001133411875
20
-165.99996183812959
10
-63.900003439457677
20
-165.99996183812959
42
0.34199871419376293
10
-65.836495114484677
20
-167.49996184557841
42
-0.3419987141937782
10
-67.772986789511677
20
-168.99996185302729
10
-178.00000000000045
20
-168.99996185302729
42
-0.41421356237310542
10
-180.00000000000045
20
-166.99996185302729
10
-180.00000000000054
20
-71.999961853027798
42
-0.41421356237309637
10
-178.00000000000054
20
-69.999961853027798
10
-140.00000198185444
20
-69.999961853027798
42
0.41421356237309509
10
-138.00000198185444
20
-67.999961853027798
10
-138.00000198185444
20
-57.000000819563859
42
0.41421356237309509
0
CIRCLE
5
102
100
AcDbEntity
8
0
100
AcDbCircle
10
-94.99999961578402
20
225.00003814697209
30
0
40
2.6999999999999957
210
-7.0064924260284301e-44
220
-1.1054296079962927e-72
230
1
0
CIRCLE
5
103
100
AcDbEntity
8
0
100
AcDbCircle
10
-64.999999615784034
20
-84.999961853027571
30
0
40
2.6999999999999957
210
-7.0064924260284311e-44
220
-1.1054296079962929e-72
230
1
0
ENDSEC
0
SECTION
2
OBJECTS
0
DICTIONARY
5
C
100
AcDbDictionary
3
ACAD_GROUP
350
D
3
ACAD_MLINESTYLE
350
17
0
DICTIONARY
5
D
100
AcDbDictionary
0
DICTIONARY
5
1A
330
C
100
AcDbDictionary
0
DICTIONARY
5
17
100
AcDbDictionary
0
ENDSEC
0
EOF
