0
SECTION
2
HEADER
9
$INSUNITS
70
4
9
$ACADVER
1
AC1014
9
$HANDSEED
5
FFFF
0
ENDSEC
0
SECTION
2
TABLES
0
TABLE
2
VPORT
5
8
100
AcDbSymbolTable
0
ENDTAB
0
TABLE
2
LTYPE
5
5
100
AcDbSymbolTable
0
LTYPE
5
14
100
AcDbSymbolTableRecord
100
AcDbLinetypeTableRecord
2
BYBLOCK
70
0
0
LTYPE
5
15
100
AcDbSymbolTableRecord
100
AcDbLinetypeTableRecord
2
BYLAYER
70
0
0
ENDTAB
0
TABLE
2
LAYER
5
2
100
AcDbSymbolTable
70
2
0
LAYER
5
50
100
AcDbSymbolTableRecord
100
AcDbLayerTableRecord
2
0
70
0
6
CONTINUOUS
0
ENDTAB
0
TABLE
2
STYLE
5
3
100
AcDbSymbolTable
70
1
0
STYLE
5
11
100
AcDbSymbolTableRecord
100
AcDbTextStyleTableRecord
2
STANDARD
70
0
0
ENDTAB
0
TABLE
2
VIEW
5
6
100
AcDbSymbolTable
70
0
0
ENDTAB
0
TABLE
2
UCS
5
7
100
AcDbSymbolTable
70
0
0
ENDTAB
0
TABLE
2
APPID
5
9
100
AcDbSymbolTable
70
2
0
APPID
5
12
100
AcDbSymbolTableRecord
100
AcDbRegAppTableRecord
2
ACAD
70
0
0
ENDTAB
0
TABLE
2
DIMSTYLE
5
A
100
AcDbSymbolTable
70
1
0
ENDTAB
0
TABLE
2
BLOCK_RECORD
5
1
100
AcDbSymbolTable
70
1
0
BLOCK_RECORD
5
1F
100
AcDbSymbolTableRecord
100
AcDbBlockTableRecord
2
*MODEL_SPACE
0
BLOCK_RECORD
5
1B
100
AcDbSymbolTableRecord
100
AcDbBlockTableRecord
2
*PAPER_SPACE
0
ENDTAB
0
ENDSEC
0
SECTION
2
BLOCKS
0
BLOCK
5
20
100
AcDbEntity
100
AcDbBlockBegin
2
*MODEL_SPACE
0
ENDBLK
5
21
100
AcDbEntity
100
AcDbBlockEnd
0
BLOCK
5
1C
100
AcDbEntity
100
AcDbBlockBegin
2
*PAPER_SPACE
0
ENDBLK
5
1D
100
AcDbEntity
100
AcDbBlockEnd
0
ENDSEC
0
SECTION
2
ENTITIES
0
LWPOLYLINE
5
100
100
AcDbEntity
8
0
100
AcDbPolyline
90
40
70
1
43
0.0
10
180.00000000000102
20
66.000006675706473
42
-0.41421356237309115
10
178.00000000000099
20
64.000006675706501
10
-178.00000000000108
20
64.000006675705549
42
-0.41421356237310025
10
-180.00000000000102
20
66.000006675705549
10
-180.00000000000136
20
99.999999999999645
10
-183.00000000000136
20
99.999999999999787
10
-183.00000000000082
20
119.99999999999979
10
-180.00000000000082
20
119.99999999999974
10
-180.00000000000028
20
250.00000047682832
10
-183.00000000000028
20
250.00000047682832
10
-183.00000000000028
20
270.00000047682829
10
-180.00000000000028
20
270.00000047682829
10
-179.99999999999972
20
399.99999999999801
10
-182.99999999999972
20
399.99999999999801
10
-182.99999999999977
20
419.99999999999801
10
-179.99999999999974
20
419.99999999999801
10
-179.99999999999955
20
488.00000047682624
42
-0.41421356237309503
10
-177.99999999999952
20
490.00000047682624
10
-70.99999999999946
20
490.00000047682647
10
-70.999999999999432
20
493.00000047682948
10
-50.999999999999453
20
493.00000047682931
10
-50.99999999999946
20
490.00000047682636
10
51.000000000002444
20
490.0000004768259
10
51.000000000002458
20
493.00000047682892
10
71.000000000002444
20
493.00000047682897
10
71.000000000002444
20
490.00000047682602
10
178.0000000000025
20
490.00000047682715
42
-0.41421356237309503
10
180.00000000000253
20
488.00000047682715
10
180.00000000000225
20
419.9999999999967
10
183.00000000000225
20
419.9999999999967
10
183.00000000000207
20
399.9999999999967
10
180.00000000000205
20
399.9999999999967
10
180.00000000000171
20
270.00000047682704
10
183.00000000000171
20
270.00000047682698
10
183.00000000000156
20
250.00000047682701
10
180.00000000000156
20
250.00000047682704
10
180.00000000000117
20
119.99999999999847
10
183.00000000000119
20
119.99999999999847
10
183.00000000000156
20
99.999999999998465
10
180.00000000000156
20
99.999999999998366
0
LWPOLYLINE
5
101
100
AcDbEntity
8
0
100
AcDbPolyline
90
40
70
1
43
0.0
10
180.00000000000099
20
66.000006675706473
42
-0.41421356237309503
10
178.00000000000099
20
64.000006675706501
10
-178.00000000000108
20
64.000006675705549
42
-0.41421356237311197
10
-180.00000000000102
20
66.000006675705549
10
-180.00000000000136
20
99.999999999999645
10
-183.00000000000136
20
99.999999999999787
10
-183.00000000000082
20
119.99999999999979
10
-180.00000000000082
20
119.99999999999974
10
-180.00000000000028
20
250.00000047682832
10
-183.00000000000028
20
250.00000047682832
10
-183.00000000000028
20
270.00000047682829
10
-180.00000000000028
20
270.00000047682829
10
-179.99999999999972
20
399.99999999999801
10
-182.99999999999972
20
399.99999999999801
10
-182.99999999999977
20
419.99999999999801
10
-179.99999999999974
20
419.99999999999801
10
-179.99999999999949
20
488.0000004768263
42
-0.41421356237305862
10
-177.99999999999952
20
490.00000047682624
10
-70.99999999999946
20
490.00000047682647
10
-70.999999999999432
20
493.00000047682948
10
-50.999999999999453
20
493.00000047682931
10
-50.99999999999946
20
490.00000047682636
10
51.000000000002444
20
490.0000004768259
10
51.000000000002458
20
493.00000047682892
10
71.000000000002444
20
493.00000047682897
10
71.000000000002444
20
490.00000047682602
10
178.0000000000025
20
490.00000047682715
42
-0.41421356237308982
10
180.00000000000253
20
488.00000047682715
10
180.00000000000225
20
419.9999999999967
10
183.00000000000225
20
419.9999999999967
10
183.00000000000207
20
399.9999999999967
10
180.00000000000205
20
399.9999999999967
10
180.00000000000171
20
270.00000047682704
10
183.00000000000171
20
270.00000047682698
10
183.00000000000156
20
250.00000047682701
10
180.00000000000156
20
250.00000047682704
10
180.00000000000117
20
119.99999999999847
10
183.00000000000119
20
119.99999999999847
10
183.00000000000156
20
99.999999999998465
10
180.00000000000156
20
99.999999999998366
0
ENDSEC
0
SECTION
2
OBJECTS
0
DICTIONARY
5
C
100
AcDbDictionary
3
ACAD_GROUP
350
D
3
ACAD_MLINESTYLE
350
17
0
DICTIONARY
5
D
100
AcDbDictionary
0
DICTIONARY
5
1A
330
C
100
AcDbDictionary
0
DICTIONARY
5
17
100
AcDbDictionary
0
ENDSEC
0
EOF
