0
SECTION
2
HEADER
9
$INSUNITS
70
4
9
$ACADVER
1
AC1014
9
$HANDSEED
5
FFFF
0
ENDSEC
0
SECTION
2
TABLES
0
TABLE
2
VPORT
5
8
100
AcDbSymbolTable
0
ENDTAB
0
TABLE
2
LTYPE
5
5
100
AcDbSymbolTable
0
LTYPE
5
14
100
AcDbSymbolTableRecord
100
AcDbLinetypeTableRecord
2
BYBLOCK
70
0
0
LTYPE
5
15
100
AcDbSymbolTableRecord
100
AcDbLinetypeTableRecord
2
BYLAYER
70
0
0
ENDTAB
0
TABLE
2
LAYER
5
2
100
AcDbSymbolTable
70
2
0
LAYER
5
50
100
AcDbSymbolTableRecord
100
AcDbLayerTableRecord
2
0
70
0
6
CONTINUOUS
0
ENDTAB
0
TABLE
2
STYLE
5
3
100
AcDbSymbolTable
70
1
0
STYLE
5
11
100
AcDbSymbolTableRecord
100
AcDbTextStyleTableRecord
2
STANDARD
70
0
0
ENDTAB
0
TABLE
2
VIEW
5
6
100
AcDbSymbolTable
70
0
0
ENDTAB
0
TABLE
2
UCS
5
7
100
AcDbSymbolTable
70
0
0
ENDTAB
0
TABLE
2
APPID
5
9
100
AcDbSymbolTable
70
2
0
APPID
5
12
100
AcDbSymbolTableRecord
100
AcDbRegAppTableRecord
2
ACAD
70
0
0
ENDTAB
0
TABLE
2
DIMSTYLE
5
A
100
AcDbSymbolTable
70
1
0
ENDTAB
0
TABLE
2
BLOCK_RECORD
5
1
100
AcDbSymbolTable
70
1
0
BLOCK_RECORD
5
1F
100
AcDbSymbolTableRecord
100
AcDbBlockTableRecord
2
*MODEL_SPACE
0
BLOCK_RECORD
5
1B
100
AcDbSymbolTableRecord
100
AcDbBlockTableRecord
2
*PAPER_SPACE
0
ENDTAB
0
ENDSEC
0
SECTION
2
BLOCKS
0
BLOCK
5
20
100
AcDbEntity
100
AcDbBlockBegin
2
*MODEL_SPACE
0
ENDBLK
5
21
100
AcDbEntity
100
AcDbBlockEnd
0
BLOCK
5
1C
100
AcDbEntity
100
AcDbBlockBegin
2
*PAPER_SPACE
0
ENDBLK
5
1D
100
AcDbEntity
100
AcDbBlockEnd
0
ENDSEC
0
SECTION
2
ENTITIES
0
LWPOLYLINE
5
100
100
AcDbEntity
8
0
100
AcDbPolyline
90
24
70
1
43
0.0
10
186.99996185302723
20
399.99999999999739
10
189.99996185302723
20
399.99999999999739
10
189.99996185302723
20
270.00000047682767
10
186.99996185302723
20
270.00000047682767
10
186.99996185302723
20
250.00000047682764
10
189.99996185302723
20
250.00000047682764
10
189.99996185302723
20
119.99999999999913
10
186.99996185302723
20
119.99999999999913
10
186.99996185302723
20
99.999999999999133
10
189.99996185302723
20
99.999999999999133
10
189.99996185302729
20
51.000001430501712
42
-0.41421356237310025
10
187.9999618530272
20
49.000001430501698
10
-3.0000403023250817
20
49.000001430500816
42
-0.4142135623730937
10
-5.000040302325095
20
51.000001430500802
10
-5.0000403023250968
20
107.99999999999913
42
0.4142135623730947
10
-7.0000403023250968
20
109.99999999999913
10
-78.000000000000313
20
109.99999999999912
42
-0.41421356237308982
10
-80.000000000000313
20
111.9999999999991
10
-80.00000000000027
20
488.00000047682568
42
-0.41421356237309503
10
-78.000000000000284
20
490.00000047682562
10
187.9999618530272
20
490.00000047682562
42
-0.41421356237309503
10
189.99996185302723
20
488.00000047682556
10
189.99996185302723
20
419.99999999999739
10
186.99996185302723
20
419.99999999999739
0
CIRCLE
5
101
100
AcDbEntity
8
0
100
AcDbCircle
10
9.9999618530214498
20
409.99999999999739
30
-1.0658141036401503e-13
40
2.6999999999999802
210
1.1101999959167394e-16
220
0
230
1
0
CIRCLE
5
102
100
AcDbEntity
8
0
100
AcDbCircle
10
9.9999618530259067
20
260.00000047682767
30
-3.5527136788005009e-14
40
2.7000000000000002
210
1.1101999959167394e-16
220
0
230
1
0
CIRCLE
5
103
100
AcDbEntity
8
0
100
AcDbCircle
10
9.99996185303036
20
109.99999999999912
30
1.0658141036401503e-13
40
2.7000000000000055
210
1.1101999959167394e-16
220
0
230
1
0
LWPOLYLINE
5
104
100
AcDbEntity
8
0
100
AcDbPolyline
90
24
70
1
43
0.0
10
186.99996185302723
20
399.99999999999739
10
189.99996185302723
20
399.99999999999739
10
189.99996185302723
20
270.00000047682767
10
186.99996185302723
20
270.00000047682767
10
186.99996185302723
20
250.00000047682764
10
189.99996185302723
20
250.00000047682767
10
189.99996185302723
20
119.99999999999913
10
186.99996185302723
20
119.99999999999913
10
186.99996185302723
20
99.999999999999133
10
189.99996185302723
20
99.999999999999133
10
189.99996185302723
20
51.000001430501712
42
-0.41421356237310281
10
187.9999618530272
20
49.000001430501698
10
-3.0000403023250808
20
49.000001430500802
42
-0.41421356237309304
10
-5.000040302325095
20
51.000001430500802
10
-5.0000403023250968
20
107.99999999999913
42
0.41421356237309503
10
-7.0000403023250968
20
109.99999999999913
10
-78.000000000000313
20
109.99999999999912
42
-0.4142135623730937
10
-80.000000000000313
20
111.9999999999991
10
-80.000000000000213
20
488.00000047682556
42
-0.41421356237308982
10
-78.000000000000284
20
490.00000047682562
10
187.9999618530272
20
490.00000047682562
42
-0.41421356237308982
10
189.99996185302723
20
488.00000047682556
10
189.99996185302723
20
419.99999999999739
10
186.99996185302723
20
419.99999999999739
0
CIRCLE
5
105
100
AcDbEntity
8
0
100
AcDbCircle
10
9.9999618530214498
20
409.99999999999739
30
0
40
2.6999999999999802
210
9.244460794335817e-33
220
5.1317066120581305e-49
230
1
0
CIRCLE
5
106
100
AcDbEntity
8
0
100
AcDbCircle
10
9.9999618530259067
20
260.00000047682767
30
0
40
2.7000000000000002
210
2.1570412438414127e-32
220
1.19739842698942e-48
230
1
0
CIRCLE
5
107
100
AcDbEntity
8
0
100
AcDbCircle
10
9.99996185303036
20
109.99999999999912
30
0
40
2.7000000000000055
210
2.1570412438414127e-32
220
1.19739842698942e-48
230
1
0
ENDSEC
0
SECTION
2
OBJECTS
0
DICTIONARY
5
C
100
AcDbDictionary
3
ACAD_GROUP
350
D
3
ACAD_MLINESTYLE
350
17
0
DICTIONARY
5
D
100
AcDbDictionary
0
DICTIONARY
5
1A
330
C
100
AcDbDictionary
0
DICTIONARY
5
17
100
AcDbDictionary
0
ENDSEC
0
EOF
